<mxfile host="Electron" modified="2023-06-05T21:16:55.365Z" agent="Mozilla/5.0 (Windows NT 10.0; Win64; x64) AppleWebKit/537.36 (KHTML, like Gecko) draw.io/21.2.8 Chrome/112.0.5615.165 Electron/24.2.0 Safari/537.36" etag="WvYPZ0PK8PekiIJmoJ4j" version="21.2.8" type="device">
  <diagram id="ZLg6_L8ImnrS6IeAaXnI" name="Страница 1">
    <mxGraphModel dx="2485" dy="826" grid="1" gridSize="10" guides="1" tooltips="1" connect="1" arrows="1" fold="1" page="1" pageScale="1" pageWidth="827" pageHeight="1169" math="0" shadow="0">
      <root>
        <mxCell id="0" />
        <mxCell id="1" parent="0" />
        <mxCell id="x1GmrEQxyKmSBaFjP8R0-1" value="Class Animals" style="rounded=0;whiteSpace=wrap;html=1;" parent="1" vertex="1">
          <mxGeometry x="300" y="60" width="190" height="60" as="geometry" />
        </mxCell>
        <mxCell id="x1GmrEQxyKmSBaFjP8R0-6" style="edgeStyle=orthogonalEdgeStyle;rounded=0;orthogonalLoop=1;jettySize=auto;html=1;entryX=1;entryY=0.5;entryDx=0;entryDy=0;" parent="1" source="x1GmrEQxyKmSBaFjP8R0-3" target="x1GmrEQxyKmSBaFjP8R0-1" edge="1">
          <mxGeometry relative="1" as="geometry">
            <mxPoint x="540" y="30" as="targetPoint" />
            <Array as="points">
              <mxPoint x="615" y="90" />
            </Array>
          </mxGeometry>
        </mxCell>
        <mxCell id="x1GmrEQxyKmSBaFjP8R0-10" value="Extends" style="edgeLabel;html=1;align=center;verticalAlign=middle;resizable=0;points=[];fontSize=14;" parent="x1GmrEQxyKmSBaFjP8R0-6" vertex="1" connectable="0">
          <mxGeometry x="0.1163" y="-1" relative="1" as="geometry">
            <mxPoint x="-25" y="1" as="offset" />
          </mxGeometry>
        </mxCell>
        <mxCell id="x1GmrEQxyKmSBaFjP8R0-3" value="Class Packed Animals" style="rounded=0;whiteSpace=wrap;html=1;" parent="1" vertex="1">
          <mxGeometry x="520" y="180" width="190" height="60" as="geometry" />
        </mxCell>
        <mxCell id="x1GmrEQxyKmSBaFjP8R0-5" style="edgeStyle=orthogonalEdgeStyle;rounded=0;orthogonalLoop=1;jettySize=auto;html=1;entryX=0;entryY=0.5;entryDx=0;entryDy=0;" parent="1" source="x1GmrEQxyKmSBaFjP8R0-4" target="x1GmrEQxyKmSBaFjP8R0-1" edge="1">
          <mxGeometry relative="1" as="geometry">
            <mxPoint x="240" y="30" as="targetPoint" />
            <Array as="points">
              <mxPoint x="185" y="90" />
            </Array>
          </mxGeometry>
        </mxCell>
        <mxCell id="x1GmrEQxyKmSBaFjP8R0-7" value="&lt;font style=&quot;font-size: 14px;&quot;&gt;Extends&lt;/font&gt;" style="edgeLabel;html=1;align=center;verticalAlign=middle;resizable=0;points=[];" parent="x1GmrEQxyKmSBaFjP8R0-5" vertex="1" connectable="0">
          <mxGeometry x="0.2976" y="2" relative="1" as="geometry">
            <mxPoint y="2" as="offset" />
          </mxGeometry>
        </mxCell>
        <mxCell id="x1GmrEQxyKmSBaFjP8R0-4" value="Class Home Animals" style="rounded=0;whiteSpace=wrap;html=1;" parent="1" vertex="1">
          <mxGeometry x="90" y="180" width="190" height="60" as="geometry" />
        </mxCell>
        <mxCell id="x1GmrEQxyKmSBaFjP8R0-23" style="edgeStyle=orthogonalEdgeStyle;rounded=0;orthogonalLoop=1;jettySize=auto;html=1;fontSize=14;entryX=0;entryY=0.5;entryDx=0;entryDy=0;" parent="1" source="x1GmrEQxyKmSBaFjP8R0-11" target="x1GmrEQxyKmSBaFjP8R0-4" edge="1">
          <mxGeometry relative="1" as="geometry">
            <mxPoint x="50" y="200" as="targetPoint" />
            <Array as="points">
              <mxPoint x="10" y="315" />
              <mxPoint x="10" y="210" />
            </Array>
          </mxGeometry>
        </mxCell>
        <mxCell id="x1GmrEQxyKmSBaFjP8R0-25" value="Extends" style="edgeLabel;html=1;align=center;verticalAlign=middle;resizable=0;points=[];fontSize=14;" parent="x1GmrEQxyKmSBaFjP8R0-23" vertex="1" connectable="0">
          <mxGeometry x="-0.0574" relative="1" as="geometry">
            <mxPoint as="offset" />
          </mxGeometry>
        </mxCell>
        <mxCell id="x1GmrEQxyKmSBaFjP8R0-11" value="Class Dog" style="whiteSpace=wrap;html=1;aspect=fixed;fontSize=14;" parent="1" vertex="1">
          <mxGeometry x="40" y="280" width="70" height="70" as="geometry" />
        </mxCell>
        <mxCell id="x1GmrEQxyKmSBaFjP8R0-21" style="edgeStyle=orthogonalEdgeStyle;rounded=0;orthogonalLoop=1;jettySize=auto;html=1;entryX=0.5;entryY=1;entryDx=0;entryDy=0;fontSize=14;" parent="1" source="x1GmrEQxyKmSBaFjP8R0-12" target="x1GmrEQxyKmSBaFjP8R0-4" edge="1">
          <mxGeometry relative="1" as="geometry">
            <Array as="points">
              <mxPoint x="185" y="270" />
              <mxPoint x="185" y="270" />
            </Array>
          </mxGeometry>
        </mxCell>
        <mxCell id="x1GmrEQxyKmSBaFjP8R0-12" value="Class Cat" style="whiteSpace=wrap;html=1;aspect=fixed;fontSize=14;" parent="1" vertex="1">
          <mxGeometry x="150" y="280" width="70" height="70" as="geometry" />
        </mxCell>
        <mxCell id="x1GmrEQxyKmSBaFjP8R0-22" style="edgeStyle=orthogonalEdgeStyle;rounded=0;orthogonalLoop=1;jettySize=auto;html=1;fontSize=14;entryX=1.002;entryY=0.674;entryDx=0;entryDy=0;entryPerimeter=0;" parent="1" source="x1GmrEQxyKmSBaFjP8R0-13" target="x1GmrEQxyKmSBaFjP8R0-4" edge="1">
          <mxGeometry relative="1" as="geometry">
            <mxPoint x="320" y="220" as="targetPoint" />
            <Array as="points">
              <mxPoint x="390" y="315" />
              <mxPoint x="390" y="220" />
              <mxPoint x="320" y="220" />
            </Array>
          </mxGeometry>
        </mxCell>
        <mxCell id="x1GmrEQxyKmSBaFjP8R0-24" value="Extends" style="edgeLabel;html=1;align=center;verticalAlign=middle;resizable=0;points=[];fontSize=14;" parent="x1GmrEQxyKmSBaFjP8R0-22" vertex="1" connectable="0">
          <mxGeometry x="-0.2656" y="2" relative="1" as="geometry">
            <mxPoint as="offset" />
          </mxGeometry>
        </mxCell>
        <mxCell id="x1GmrEQxyKmSBaFjP8R0-13" value="Class Hamster" style="whiteSpace=wrap;html=1;aspect=fixed;fontSize=14;" parent="1" vertex="1">
          <mxGeometry x="260" y="280" width="70" height="70" as="geometry" />
        </mxCell>
        <mxCell id="x1GmrEQxyKmSBaFjP8R0-20" style="edgeStyle=orthogonalEdgeStyle;rounded=0;orthogonalLoop=1;jettySize=auto;html=1;fontSize=14;startArrow=none;entryX=0.5;entryY=1;entryDx=0;entryDy=0;" parent="1" source="x1GmrEQxyKmSBaFjP8R0-29" target="x1GmrEQxyKmSBaFjP8R0-3" edge="1">
          <mxGeometry relative="1" as="geometry">
            <mxPoint x="615" y="230" as="targetPoint" />
          </mxGeometry>
        </mxCell>
        <mxCell id="x1GmrEQxyKmSBaFjP8R0-14" value="Class Camel" style="whiteSpace=wrap;html=1;aspect=fixed;fontSize=14;" parent="1" vertex="1">
          <mxGeometry x="580" y="280" width="70" height="70" as="geometry" />
        </mxCell>
        <mxCell id="x1GmrEQxyKmSBaFjP8R0-17" style="edgeStyle=orthogonalEdgeStyle;rounded=0;orthogonalLoop=1;jettySize=auto;html=1;fontSize=14;entryX=0.005;entryY=0.617;entryDx=0;entryDy=0;entryPerimeter=0;" parent="1" source="x1GmrEQxyKmSBaFjP8R0-15" target="x1GmrEQxyKmSBaFjP8R0-3" edge="1">
          <mxGeometry relative="1" as="geometry">
            <mxPoint x="440" y="130" as="targetPoint" />
            <Array as="points">
              <mxPoint x="440" y="315" />
              <mxPoint x="440" y="217" />
            </Array>
          </mxGeometry>
        </mxCell>
        <mxCell id="x1GmrEQxyKmSBaFjP8R0-27" value="Extends" style="edgeLabel;html=1;align=center;verticalAlign=middle;resizable=0;points=[];fontSize=14;" parent="x1GmrEQxyKmSBaFjP8R0-17" vertex="1" connectable="0">
          <mxGeometry x="0.0656" relative="1" as="geometry">
            <mxPoint as="offset" />
          </mxGeometry>
        </mxCell>
        <mxCell id="x1GmrEQxyKmSBaFjP8R0-15" value="Class Horse" style="whiteSpace=wrap;html=1;aspect=fixed;fontSize=14;" parent="1" vertex="1">
          <mxGeometry x="470" y="280" width="70" height="70" as="geometry" />
        </mxCell>
        <mxCell id="x1GmrEQxyKmSBaFjP8R0-19" style="edgeStyle=orthogonalEdgeStyle;rounded=0;orthogonalLoop=1;jettySize=auto;html=1;fontSize=14;entryX=1;entryY=0.333;entryDx=0;entryDy=0;entryPerimeter=0;" parent="1" source="x1GmrEQxyKmSBaFjP8R0-16" target="x1GmrEQxyKmSBaFjP8R0-3" edge="1">
          <mxGeometry relative="1" as="geometry">
            <mxPoint x="790" y="200" as="targetPoint" />
            <Array as="points">
              <mxPoint x="810" y="315" />
              <mxPoint x="810" y="200" />
            </Array>
          </mxGeometry>
        </mxCell>
        <mxCell id="x1GmrEQxyKmSBaFjP8R0-26" value="Extends" style="edgeLabel;html=1;align=center;verticalAlign=middle;resizable=0;points=[];fontSize=14;" parent="x1GmrEQxyKmSBaFjP8R0-19" vertex="1" connectable="0">
          <mxGeometry x="-0.0528" y="1" relative="1" as="geometry">
            <mxPoint as="offset" />
          </mxGeometry>
        </mxCell>
        <mxCell id="x1GmrEQxyKmSBaFjP8R0-16" value="Class Donkey" style="whiteSpace=wrap;html=1;aspect=fixed;fontSize=14;" parent="1" vertex="1">
          <mxGeometry x="690" y="280" width="70" height="70" as="geometry" />
        </mxCell>
        <mxCell id="x1GmrEQxyKmSBaFjP8R0-28" value="&lt;span style=&quot;background-color: rgb(255, 255, 255);&quot;&gt;Extends&lt;/span&gt;" style="text;html=1;strokeColor=none;fillColor=none;align=center;verticalAlign=middle;whiteSpace=wrap;rounded=0;fontSize=14;" parent="1" vertex="1">
          <mxGeometry x="160" y="250" width="60" height="30" as="geometry" />
        </mxCell>
        <mxCell id="x1GmrEQxyKmSBaFjP8R0-29" value="&lt;span style=&quot;background-color: rgb(255, 255, 255);&quot;&gt;Extends&lt;/span&gt;" style="text;html=1;strokeColor=none;fillColor=none;align=center;verticalAlign=middle;whiteSpace=wrap;rounded=0;fontSize=14;" parent="1" vertex="1">
          <mxGeometry x="585" y="250" width="60" height="30" as="geometry" />
        </mxCell>
        <mxCell id="x1GmrEQxyKmSBaFjP8R0-32" value="" style="edgeStyle=orthogonalEdgeStyle;rounded=0;orthogonalLoop=1;jettySize=auto;html=1;entryX=0.5;entryY=1;entryDx=0;entryDy=0;fontSize=14;endArrow=none;" parent="1" source="x1GmrEQxyKmSBaFjP8R0-14" target="x1GmrEQxyKmSBaFjP8R0-29" edge="1">
          <mxGeometry relative="1" as="geometry">
            <mxPoint x="615" y="280" as="sourcePoint" />
            <mxPoint x="615" y="240" as="targetPoint" />
          </mxGeometry>
        </mxCell>
      </root>
    </mxGraphModel>
  </diagram>
</mxfile>
